# AST/ASF file generated using VICON BodyLanguage
# -----------------------------------------------
:version 1.10
:name VICON
:units
  mass 1.0
  length 0.45
  angle deg
:documentation
   .ast/.asf automatically generated from VICON data using
   VICON BodyBuilder and BodyLanguage model FoxedUp or BRILLIANT.MOD
:root
   order TX TY TZ RX RY RZ
   axis XYZ
   position 0 0 0  
   orientation 0 0 0 
:bonedata
  begin
     id 1 
     name lhipjoint
     direction 0.714689 -0.624256 0.315473 
     length 2.45343 
     axis 0 0 0  XYZ
  end
  begin
     id 2 
     name lfemur
     direction 0.34202 -0.939693 0  
     length 6.59069  
     axis 0 0 20  XYZ
    dof rx ry rz
    limits (-160.0 20.0)
           (-70.0 70.0)
           (-60.0 70.0)
  end
  begin
     id 3 
     name ltibia
     direction 0.34202 -0.939693 0   
     length 6.73476   
     axis 0 0 20   XYZ
    dof rx
    limits (-10.0 170.0)
  end
  begin
     id 4 
     name lfoot
     direction 0.0718085 -0.197292 0.977711   
     length 1.52607   
     axis -90 7.62852e-016 20   XYZ
    dof rx rz
    limits (-45.0 90.0)
           (-70.0 20.0)
  end
  begin
     id 5 
     name ltoes
     direction 1.53553e-011 -4.22024e-011 1   
     length 0.777832   
     axis -90 7.62852e-016 20   XYZ
    dof rx
    limits (-90.0 20.0)
  end
  begin
     id 6 
     name rhipjoint
     direction -0.727419 -0.612432 0.309497   
     length 2.50079  
     axis 0 0 0  XYZ 
  end
  begin
     id 7 
     name rfemur
     direction -0.34202 -0.939693 0   
     length 6.51665   
     axis 0 0 -20   XYZ
    dof rx ry rz
    limits (-160.0 20.0)
           (-70.0 70.0)
           (-70.0 60.0)
  end
  begin
     id 8 
     name rtibia
     direction -0.34202 -0.939693 0   
     length 6.48919   
     axis 0 0 -20   XYZ
    dof rx
    limits (-10.0 170.0)
 end
 begin
     id 9 
     name rfoot
     direction -0.112205 -0.308282 0.944655   
     length 1.68717  
     axis -90 -7.62852e-016 -20   XYZ
    dof rx rz
    limits (-45.0 90.0)
           (-20.0 70.0)
  end
  begin
     id 10 
     name rtoes
     direction -1.53583e-011 -4.21993e-011 1   
     length 0.846859   
     axis -90 -7.62852e-016 -20   XYZ
    dof rx
    limits (-90.0 20.0)
  end
  begin
     id 11 
     name lowerback
     direction -0.00119603 0.996364 -0.0851956   
     length 1.67242   
     axis 0 0 0   XYZ
    dof rx ry rz
    limits (-20.0 45.0)
           (-30.0 30.0)
           (-30.0 30.0)
  end
  begin
     id 12 
     name upperback
     direction -0.00531001 0.998318 0.0577248   
     length 1.64819   
     axis 0 0 0   XYZ
    dof rx ry rz
    limits (-20.0 45.0)
           (-30.0 30.0)
           (-30.0 30.0)
  end
  begin
     id 13 
     name thorax
     direction -0.00653676 0.995132 0.0983291   
     length 1.67429   
     axis 0 0 0   XYZ
    dof rx ry rz
    limits (-20.0 45.0)
           (-30.0 30.0)
           (-30.0 30.0)
  end
  begin
     id 14 
     name lowerneck
     direction 0.0141424 0.999886 0.00525412   
     length 1.59623   
     axis 0 0 0   XYZ
    dof rx ry rz
    limits (-20.0 45.0)
           (-30.0 30.0)
           (-30.0 30.0)
  end
  begin
     id 15 
     name upperneck
     direction -0.0640064 0.987178 -0.146232   
     length 1.59576   
     axis 0 0 0   XYZ
    dof rx ry rz
    limits (-20.0 45.0)
           (-30.0 30.0)
           (-30.0 30.0)
  end
  begin
     id 16
     name head
     direction -0.0222942 0.998496 -0.0500859  
     length 1.60959  
     axis 0 0 0   XYZ
    dof rx ry rz
    limits (-20.0 45.0)
           (-30.0 30.0)
           (-30.0 30.0)
  end
  begin
     id 17 
     name lclavicle
     direction 0.908549 0.392612 0.142806  
     length 2.80649  
     axis 0 0 0   XYZ
    dof ry rz
    limits (-20.0 10.0)
           (0.0 20.0)
  end
  begin
     id 18 
     name lhumerus
     direction 1 -4.48968e-011 1.08832e-028   
     length 4.2884   
     axis -180 -30 -90   XYZ
    dof rx ry rz
    limits (-60.0 90.0)
           (-90.0 90.0)
           (-90.0 90.0)
  end
  begin
     id 19
     name lradius
     direction 1 -4.48952e-011 -3.02642e-028   
     length 3.06552   
     axis -180 -30 -90   XYZ
    dof rx
    limits (-10.0 170.0)
  end
  begin
     id 20
     name lwrist
     direction 1 -4.49014e-011 1.58672e-027   
     length 1.53276   
     axis -1.65735e-015 90 90   XYZ
    dof ry
    limits (-180.0 0.0)
 end
  begin
     id 21 
     name lhand
     direction 1 -4.48928e-011 3.17344e-027   
     length 0.753045   
     axis -2.02492e-015 90 90   XYZ
    dof rx rz
    limits (-90.0 90.0)
           (-45.0 45.0)
  end
  begin
     id 22 
     name lfingers
     direction 1 -4.48958e-011 6.34687e-027   
     length 0.607124   
     axis -4.04985e-015 90 90   XYZ
    dof rx
    limits (0.0 90.0)
  end
  begin
     id 23
     name lthumb
     direction 0.707107 -6.34905e-011 0.707107   
     length 0.871712   
     axis -90 45 2.85299e-015   XYZ
    dof rx rz
    limits (-45.0 45.0)
           (-45.0 45.0)
  end
  begin
     id 24 
     name rclavicle
     direction -0.885098 0.45949 0.0739604   
     length 2.9478  
     axis 0 0 0   XYZ 
    dof ry rz
    limits (-10.0 20.0)
           (-20.0 0.0)
  end
  begin
     id 25 
     name rhumerus
     direction -1 -4.4898e-011 -2.61739e-027  
     length 4.52172   
     axis -180 30 90   XYZ
    dof rx ry rz
    limits (-90.0 60.0)
           (-90.0 90.0)
           (-90.0 90.0)
  end
  begin
     id 26 
     name rradius
     direction -1 -4.48945e-011 9.02552e-028   
     length 2.8914   
     axis -180 30 90   XYZ
    dof rx
    limits (-10.0 170.0)
  end
  begin
     id 27 
     name rwrist
     direction -1 -4.49018e-011 1.58672e-027   
     length 1.4457   
     axis -1.65735e-015 -90 -90   XYZ
    dof ry
    limits (-180.0 0.0)
  end
  begin
     id 28
     name rhand
     direction -1 -4.48825e-011 3.17344e-027   
     length 0.680541   
     axis -2.02492e-015 -90 -90   XYZ
    dof rx rz
    limits (-90.0 90.0)
           (-45.0 45.0)
  end
  begin
     id 29
     name rfingers
     direction -1 -4.49067e-011 6.34687e-027   
     length 0.54867   
     axis -4.04985e-015 -90 -90   XYZ
    dof rx
    limits (0.0 90.0)
  end
  begin
     id 30
     name rthumb
     direction -0.707107 -6.34833e-011 0.707107   
     length 0.787783   
     axis -90 -45 -2.85299e-015   XYZ
    dof rx rz
    limits (-45.0 45.0)
           (-45.0 45.0)
  end
:hierarchy
  begin
    root lhipjoint rhipjoint lowerback
    lhipjoint lfemur
    lfemur ltibia
    ltibia lfoot
    lfoot ltoes
    rhipjoint rfemur
    rfemur rtibia
    rtibia rfoot
    rfoot rtoes
    lowerback upperback
    upperback thorax
    thorax lowerneck lclavicle rclavicle
    lowerneck upperneck
    upperneck head
    lclavicle lhumerus
    lhumerus lradius
    lradius lwrist
    lwrist lhand lthumb
    lhand lfingers
    rclavicle rhumerus
    rhumerus rradius
    rradius rwrist
    rwrist rhand rthumb
    rhand rfingers
  end

#!OML:ASF E:\emotionWalksFemale\Project 1\Capture day 1\Session 1\Female1.ASF
:FULLY-SPECIFIED
:DEGREES
157
root 8.99328 15.5033 22.8807 178.071 6.00614 -179.648
lowerback 8.03356 0.711675 1.7874
upperback -4.21841 1.25333 0.245298
thorax -8.95802 0.537829 -0.944655
lowerneck -5.70601 -1.14031 -5.33982
upperneck 10.5079 -1.34687 4.81111
head 4.1409 -0.53886 2.28329
rclavicle 1.77167e-014 4.96962e-016
rhumerus -41.4601 6.76453 -91.1146
rradius 34.5668
rwrist 20.8323
rhand -2.21369 -52.5823
rfingers 7.12502
rthumb 23.4684 -81.171
lclavicle 1.77167e-014 4.96962e-016
lhumerus -43.2116 -7.93959 93.7144
lradius 35.1761
lwrist -11.0978
lhand 0.290459 -37.3952
lfingers 7.12502
lthumb 25.8686 -9.13476
rfemur 0.0859883 15.8152 26.2362
rtibia 16.9213
rfoot -12.9699 -26.456
rtoes -7.83065
lfemur -3.42569 -18.2282 -24.1784
ltibia 22.0697
lfoot -20.2429 20.3823
ltoes -32.2502
158
root 8.99505 15.505 22.8821 178.054 5.90253 -179.633
lowerback 7.86927 0.678049 1.8717
upperback -4.07977 1.2023 0.193936
thorax -8.70926 0.507812 -1.03387
lowerneck -5.74311 -1.12978 -5.31598
upperneck 10.3513 -1.34788 4.91306
head 4.09977 -0.535781 2.30967
rclavicle -4.96962e-015 -2.08724e-015
rhumerus -41.1669 6.71185 -91.2195
rradius 34.5085
rwrist 20.8141
rhand -2.95561 -52.0109
rfingers 7.12502
rthumb 22.7566 -80.6887
lclavicle -4.96962e-015 -2.08724e-015
lhumerus -43.0528 -8.01916 93.6312
lradius 35.2779
lwrist -10.9461
lhand -0.000672903 -37.3892
lfingers 7.12502
lthumb 25.5897 -9.0883
rfemur 0.114969 15.8784 26.2788
rtibia 16.9128
rfoot -13.0356 -26.5438
rtoes -7.32761
lfemur -3.40758 -18.3064 -24.1546
ltibia 22.0507
lfoot -20.333 20.2845
ltoes -32.3629
159
root 8.99589 15.5045 22.8808 177.994 5.87674 -179.658
lowerback 8.02851 0.684264 1.79583
upperback -4.12459 1.20929 0.222019
thorax -8.8533 0.51488 -0.965918
lowerneck -5.68313 -1.12683 -5.31823
upperneck 10.3651 -1.34108 4.88087
head 4.09346 -0.533967 2.30073
rclavicle 8.53532e-015 -7.95139e-016
rhumerus -41.2064 6.75453 -91.2426
rradius 34.4752
rwrist 20.8095
rhand -2.61892 -52.1604
rfingers 7.12502
rthumb 23.0796 -80.7982
lclavicle 8.53532e-015 -7.95139e-016
lhumerus -43.1793 -8.01576 93.7149
lradius 35.3127
lwrist -10.883
lhand -0.245806 -37.532
lfingers 7.12502
lthumb 25.3549 -9.19761
rfemur 0.214958 15.933 26.2755
rtibia 16.9119
rfoot -13.2853 -26.5284
rtoes -6.41061
lfemur -3.35044 -18.2103 -24.1869
ltibia 22.0344
lfoot -20.2593 20.2885
ltoes -33.1054
160
root 8.99649 15.5012 22.8782 177.906 5.6934 -179.692
lowerback 7.9514 0.626539 1.8321
upperback -4.00691 1.1234 0.174312
thorax -8.68082 0.469931 -1.02088
lowerneck -5.70455 -1.13575 -5.29698
upperneck 10.2686 -1.35863 4.89873
head 4.06854 -0.542749 2.30114
rclavicle 2.6252e-014 2.48481e-015
rhumerus -41.0198 6.74206 -91.3005
rradius 34.432
rwrist 20.8127
rhand -2.21094 -52.5811
rfingers 7.12502
rthumb 23.4711 -81.1694
lclavicle 2.6252e-014 2.48481e-015
lhumerus -43.034 -8.04421 93.6498
lradius 35.3007
lwrist -10.8655
lhand -0.348917 -37.7863
lfingers 7.12502
lthumb 25.2561 -9.43794
rfemur 0.347047 15.8753 26.287
rtibia 16.9174
rfoot -13.3846 -26.7022
rtoes -6.6152
lfemur -3.2736 -18.18 -24.2388
ltibia 22.0275
lfoot -20.0896 20.2398
ltoes -33.9215
161
root 8.99702 15.4991 22.8775 177.923 5.8416 -179.695
lowerback 8.23514 0.689315 1.74459
upperback -4.17887 1.21637 0.22551
thorax -9.03484 0.519216 -0.938829
lowerneck -5.64312 -1.16918 -5.29149
upperneck 10.4131 -1.39267 4.80423
head 4.10355 -0.56159 2.27038
rclavicle -1.54928e-014 -1.88845e-015
rhumerus -41.3033 6.82215 -91.3211
rradius 34.5309
rwrist 20.6473
rhand -2.55574 -52.5429
rfingers 7.12502
rthumb 23.1403 -81.1731
lclavicle -1.54928e-014 -1.88845e-015
lhumerus -43.3045 -7.98777 93.753
lradius 35.3306
lwrist -10.9293
lhand -0.363821 -37.7518
lfingers 7.12502
lthumb 25.2419 -9.40146
rfemur 0.290765 15.9055 26.2679
rtibia 16.9142
rfoot -13.1556 -26.6694
rtoes -7.30468
lfemur -3.26942 -18.1768 -24.2543
ltibia 22.0334
lfoot -20.0962 20.3333
ltoes -33.4666
162
root 8.99676 15.4981 22.877 177.946 5.81532 -179.688
lowerback 8.13263 0.687556 1.81647
upperback -4.13292 1.21525 0.190794
thorax -8.92238 0.514202 -1.01347
lowerneck -5.70057 -1.18687 -5.26528
upperneck 10.4453 -1.41654 4.79619
head 4.12398 -0.572131 2.26235
rclavicle -2.70844e-015 -3.97569e-016
rhumerus -41.2389 6.88974 -91.4401
rradius 34.5946
rwrist 20.3255
rhand -2.40632 -52.9119
rfingers 7.12502
rthumb 23.2836 -81.524
lclavicle -2.70844e-015 -3.97569e-016
lhumerus -43.2238 -8.10114 93.7329
lradius 35.2999
lwrist -10.9068
lhand -0.500868 -37.689
lfingers 7.12502
lthumb 25.1105 -9.32019
rfemur 0.284502 15.8938 26.2651
rtibia 16.8867
rfoot -13.1574 -26.6285
rtoes -6.85273
lfemur -3.2937 -18.2754 -24.2431
ltibia 22.0553
lfoot -20.2332 20.285
ltoes -32.5491
163
root 8.99678 15.4996 22.8757 178.004 5.73919 -179.67
lowerback 8.09771 0.67212 1.81979
upperback -4.1519 1.19699 0.204594
thorax -8.92333 0.506111 -0.997512
lowerneck -5.70571 -1.18074 -5.29795
upperneck 10.4191 -1.4089 4.82859
head 4.11686 -0.568407 2.27794
rclavicle -1.39149e-015 4.37326e-015
rhumerus -41.229 6.91775 -91.4392
rradius 34.6056
rwrist 20.148
rhand -2.21661 -53.2324
rfingers 7.12502
rthumb 23.4656 -81.8214
lclavicle -1.39149e-015 4.37326e-015
lhumerus -43.2159 -8.10972 93.7421
lradius 35.2994
lwrist -10.8524
lhand -0.763596 -37.8774
lfingers 7.12502
lthumb 24.8588 -9.47357
rfemur 0.252472 15.8668 26.2675
rtibia 16.8584
rfoot -13.302 -26.603
rtoes -6.19164
lfemur -3.38017 -18.2734 -24.1878
ltibia 22.0816
lfoot -20.3628 20.1097
ltoes -32.2016
164
root 8.99785 15.5018 22.8736 178.024 5.62872 -179.633
lowerback 8.01068 0.644601 1.84723
upperback -4.11526 1.16103 0.216813
thorax -8.8331 0.488467 -0.992469
lowerneck -5.62074 -1.16421 -5.31417
upperneck 10.2374 -1.39502 4.87566
head 4.04702 -0.563174 2.29498
rclavicle 8.12532e-015 -6.95746e-016
rhumerus -41.1304 6.83373 -91.384
rradius 34.5901
rwrist 20.2229
rhand -1.91811 -52.8604
rfingers 7.12502
rthumb 23.7519 -81.4125
lclavicle 8.12532e-015 -6.95746e-016
lhumerus -43.1683 -8.08588 93.7287
lradius 35.3707
lwrist -10.7582
lhand -0.74985 -37.9148
lfingers 7.12502
lthumb 24.872 -9.51282
rfemur 0.259 15.8212 26.3241
rtibia 16.8213
rfoot -13.0918 -26.7377
rtoes -6.84749
lfemur -3.43432 -18.1992 -24.1211
ltibia 22.1132
lfoot -20.3166 19.9709
ltoes -32.7587
165
root 8.99771 15.5026 22.8727 177.999 5.55262 -179.62
lowerback 8.36779 0.635949 1.80242
upperback -4.30402 1.1659 0.266309
thorax -9.25131 0.491766 -0.923825
lowerneck -5.49583 -1.18037 -5.36085
upperneck 10.3498 -1.40813 4.83749
head 4.0612 -0.571148 2.2913
rclavicle 1.93815e-015 -1.49089e-015
rhumerus -41.4091 6.85111 -91.3509
rradius 34.5455
rwrist 20.2568
rhand -1.79886 -52.4973
rfingers 7.12502
rthumb 23.8663 -81.0345
lclavicle 1.93815e-015 -1.49089e-015
lhumerus -43.5081 -8.04125 93.8514
lradius 35.4809
lwrist -10.7299
lhand -0.620688 -37.7751
lfingers 7.12502
lthumb 24.9957 -9.39029
rfemur 0.314925 15.7516 26.3493
rtibia 16.7804
rfoot -12.951 -26.7833
rtoes -7.27707
lfemur -3.43573 -18.1339 -24.1104
ltibia 22.1501
lfoot -20.1788 19.9127
ltoes -33.3775
166
root 8.99682 15.5003 22.8694 177.975 5.64344 -179.588
lowerback 8.10868 0.667129 1.91607
upperback -4.1378 1.20386 0.231275
thorax -8.91319 0.504783 -1.02441
lowerneck -5.50969 -1.19003 -5.36511
upperneck 10.1297 -1.43476 4.93347
head 3.99852 -0.58364 2.31879
rclavicle 8.39865e-015 4.57205e-015
rhumerus -41.0816 6.93213 -91.4286
rradius 34.3174
rwrist 20.2136
rhand -1.92028 -52.412
rfingers 7.12502
rthumb 23.7499 -80.9644
lclavicle 8.39865e-015 4.57205e-015
lhumerus -43.2726 -8.12738 93.75
lradius 35.476
lwrist -10.727
lhand -0.469794 -37.5904
lfingers 7.12502
lthumb 25.1403 -9.22573
rfemur 0.374472 15.7999 26.3725
rtibia 16.7424
rfoot -13.1162 -26.6268
rtoes -6.49086
lfemur -3.40293 -18.1011 -24.1048
ltibia 22.1901
lfoot -20.1391 19.9856
ltoes -33.5353
167
root 8.997 15.4984 22.8653 177.998 5.96284 -179.531
lowerback 8.21265 0.765029 1.91173
upperback -4.21878 1.34621 0.279816
thorax -9.05974 0.574979 -0.995754
lowerneck -5.38956 -1.17787 -5.43505
upperneck 10.0546 -1.42404 5.02201
head 3.95608 -0.577667 2.35806
rclavicle 1.65488e-014 2.5842e-015
rhumerus -41.1945 7.05005 -91.4732
rradius 34.2758
rwrist 20.1438
rhand -1.9776 -52.4198
rfingers 7.12502
rthumb 23.6949 -80.9793
lclavicle 1.65488e-014 2.5842e-015
lhumerus -43.3805 -7.96264 93.7046
lradius 35.4995
lwrist -10.8078
lhand -0.18137 -37.3262
lfingers 7.12502
lthumb 25.4166 -9.00063
rfemur 0.315105 15.9174 26.4041
rtibia 16.7522
rfoot -13.0424 -26.4188
rtoes -6.59059
lfemur -3.3848 -17.9874 -24.0606
ltibia 22.2131
lfoot -20.2745 20.1329
ltoes -32.8503
168
root 8.99849 15.4992 22.8627 178.014 5.55549 -179.515
lowerback 7.76165 0.630022 1.97585
upperback -3.97077 1.14795 0.26025
thorax -8.52913 0.479288 -1.0109
lowerneck -5.40583 -1.1682 -5.44224
upperneck 9.75847 -1.41781 5.04128
head 3.86878 -0.579871 2.36362
rclavicle 2.22266e-014 9.64106e-015
rhumerus -40.8258 7.14708 -91.5167
rradius 34.2526
rwrist 20.0404
rhand -1.25586 -53.1092
rfingers 7.12502
rthumb 24.3869 -81.5774
lclavicle 2.22266e-014 9.64106e-015
lhumerus -42.9774 -7.94673 93.5812
lradius 35.4925
lwrist -10.7659
lhand -0.0777484 -37.1861
lfingers 7.12502
lthumb 25.5159 -8.87462
rfemur 0.337537 15.7584 26.4662
rtibia 16.7651
rfoot -13.0533 -26.733
rtoes -6.56352
lfemur -3.46241 -17.9858 -23.9836
ltibia 22.231
lfoot -20.1602 19.7606
ltoes -32.7906
